<svg width="329" height="81" viewBox="0 0 329 81" fill="none" xmlns="http://www.w3.org/2000/svg">
<path d="M111.101 64.7831H104.584V70.8234H111.842V72.6347H102.417V55.8787H111.471V57.6983H104.584V62.9888H111.101V64.7831Z" fill="white"/>
<path d="M124.883 54.9856V69.526C124.883 70.5959 124.883 71.8174 124.985 72.6346H123.02L122.919 70.5453H122.869C122.477 71.2863 121.884 71.9016 121.158 72.3204C120.431 72.7393 119.601 72.9445 118.763 72.9125C115.855 72.9125 113.613 70.4527 113.613 66.7965C113.613 62.7949 116.074 60.335 119.008 60.335C119.722 60.2903 120.436 60.4369 121.074 60.7597C121.713 61.0826 122.254 61.5699 122.641 62.1715H122.692V54.9856H124.883ZM122.692 65.4991C122.695 65.1901 122.661 64.8818 122.59 64.5809C122.433 63.8632 122.034 63.2211 121.46 62.7613C120.887 62.3017 120.173 62.0519 119.438 62.0537C117.17 62.0537 115.83 64.0418 115.83 66.7039C115.83 69.1385 117.018 71.1518 119.387 71.1518C120.14 71.1501 120.869 70.8897 121.452 70.4141C122.036 69.9386 122.438 69.277 122.59 68.5403C122.665 68.2315 122.699 67.9144 122.692 67.5968V65.4991Z" fill="white"/>
<path d="M138.591 69.3575C138.591 70.5958 138.591 71.691 138.692 72.6345H136.753L136.627 70.6716H136.567C136.161 71.3629 135.579 71.9344 134.88 72.328C134.181 72.7216 133.391 72.9232 132.589 72.9124C130.692 72.9124 128.433 71.8678 128.433 67.6388V60.6045H130.667V67.2682C130.667 69.5512 131.358 71.0928 133.347 71.0928C133.968 71.0732 134.57 70.8721 135.079 70.5142C135.586 70.1563 135.978 69.6575 136.205 69.0794C136.334 68.7199 136.399 68.3408 136.399 67.959V60.6045H138.591V69.3575Z" fill="white"/>
<path d="M150.806 72.1879C149.721 72.6761 148.54 72.915 147.349 72.8871C143.716 72.8871 141.355 70.4273 141.355 66.7458C141.315 65.8896 141.455 65.0346 141.767 64.236C142.078 63.4374 142.554 62.7132 143.164 62.1103C143.774 61.5074 144.504 61.0394 145.306 60.7364C146.108 60.4334 146.965 60.3024 147.821 60.3517C148.866 60.343 149.9 60.5554 150.856 60.9751L150.358 62.66C149.579 62.2556 148.708 62.0583 147.83 62.0871C145.065 62.0871 143.615 64.1259 143.615 66.6362C143.615 69.4248 145.41 71.1348 147.83 71.1348C148.761 71.1411 149.679 70.9366 150.519 70.5368L150.806 72.1879Z" fill="white"/>
<path d="M160.037 72.6347L159.859 71.1184H159.783C159.357 71.6878 158.802 72.1475 158.163 72.4596C157.523 72.7717 156.82 72.927 156.108 72.9127C155.634 72.9478 155.158 72.8841 154.711 72.726C154.263 72.5677 153.853 72.3185 153.507 71.9939C153.162 71.6692 152.886 71.2762 152.699 70.8399C152.513 70.4034 152.42 69.9332 152.424 69.4587C152.424 66.5439 155.011 64.9517 159.666 64.977V64.7326C159.666 63.7386 159.387 61.9442 156.926 61.9442C155.816 61.9491 154.731 62.261 153.79 62.8456L153.292 61.3966C154.487 60.6842 155.856 60.3168 157.246 60.3351C160.929 60.3351 161.823 62.8625 161.823 65.2549V69.7535C161.807 70.718 161.875 71.682 162.026 72.6347H160.037ZM159.708 66.4934C157.323 66.4513 154.65 66.8725 154.65 69.206C154.627 69.4839 154.665 69.7634 154.761 70.0253C154.856 70.2873 155.007 70.5256 155.203 70.7239C155.398 70.9222 155.636 71.076 155.896 71.1746C156.158 71.2732 156.437 71.3143 156.714 71.2952C157.352 71.3113 157.978 71.125 158.501 70.7632C159.026 70.4014 159.422 69.8827 159.632 69.2818C159.708 69.0564 159.747 68.8204 159.75 68.5825L159.708 66.4934Z" fill="white"/>
<path d="M167.894 57.1509V60.6049H171.029V62.2897H167.894V68.7764C167.894 70.2676 168.323 71.11 169.579 71.11C170.008 71.1135 170.435 71.0655 170.852 70.9668L170.945 72.6011C170.323 72.8233 169.665 72.9262 169.006 72.9044C168.569 72.9291 168.134 72.86 167.727 72.7015C167.319 72.5432 166.95 72.2991 166.645 71.9862C166.022 71.3375 165.802 70.3012 165.802 68.8523V62.2729H163.931V60.588H165.802V57.7237L167.894 57.1509Z" fill="white"/>
<path d="M175.936 57.2266C175.936 57.5864 175.793 57.9313 175.538 58.1856C175.284 58.4401 174.939 58.583 174.579 58.583C174.219 58.583 173.874 58.4401 173.619 58.1856C173.364 57.9313 173.221 57.5864 173.221 57.2266C173.217 57.0457 173.25 56.8659 173.316 56.6977C173.383 56.5296 173.483 56.3768 173.611 56.2484C173.738 56.1202 173.89 56.019 174.059 55.9511C174.226 55.8832 174.406 55.85 174.587 55.8535C174.768 55.8474 174.949 55.8789 175.116 55.9461C175.284 56.0134 175.437 56.1147 175.563 56.2438C175.69 56.3729 175.789 56.5269 175.853 56.6961C175.917 56.8654 175.945 57.046 175.936 57.2266ZM173.491 72.6347V60.6048H175.683V72.6347H173.491Z" fill="white"/>
<path d="M190.216 66.5522C190.216 71.0087 187.13 72.9462 184.213 72.9462C180.96 72.9462 178.448 70.5537 178.448 66.7543C178.448 62.7275 181.077 60.3687 184.415 60.3687C187.754 60.3687 190.216 62.8455 190.216 66.5522ZM180.656 66.6786C180.656 69.3154 182.173 71.3035 184.314 71.3035C186.455 71.3035 187.99 69.3069 187.99 66.5943C187.99 64.5555 186.97 61.9693 184.382 61.9693C181.794 61.9693 180.656 64.3618 180.656 66.6448V66.6786Z" fill="white"/>
<path d="M192.972 63.8649C192.972 62.618 192.972 61.5988 192.871 60.6046H194.81L194.937 62.5928H194.986C195.379 61.8919 195.956 61.3112 196.654 60.9134C197.351 60.5155 198.146 60.3156 198.949 60.335C200.635 60.335 203.164 61.3207 203.164 65.4486V72.6346H200.972V65.7098C200.972 63.7721 200.256 62.1547 198.19 62.1547C197.353 62.1876 196.563 62.5459 195.986 63.1534C195.41 63.7609 195.093 64.5694 195.105 65.4064V72.643H192.913L192.972 63.8649Z" fill="white"/>
<path d="M212.134 55.8787H221.162V57.6983H214.292V63.2668H220.64V65.0527H214.292V72.6347H212.134V55.8787Z" fill="white"/>
<path d="M234.297 66.5523C234.297 71.0088 231.212 72.9463 228.303 72.9463C225.04 72.9463 222.528 70.5538 222.528 66.7544C222.528 62.7276 225.167 60.3687 228.497 60.3687C231.961 60.3351 234.297 62.8456 234.297 66.5523ZM224.745 66.6786C224.745 69.3155 226.263 71.3036 228.404 71.3036C230.545 71.3036 232.054 69.3407 232.054 66.628C232.054 64.5894 231.034 62.0031 228.446 62.0031C225.859 62.0031 224.745 64.3619 224.745 66.6449V66.6786Z" fill="white"/>
<path d="M247.136 69.3575C247.136 70.5958 247.136 71.691 247.229 72.6345H245.315L245.197 70.6716H245.147C244.74 71.3629 244.158 71.9344 243.459 72.328C242.76 72.7216 241.97 72.9232 241.168 72.9124C239.271 72.9124 237.011 71.8678 237.011 67.6388V60.6045H239.195V67.2682C239.195 69.5512 239.895 71.0928 241.884 71.0928C242.505 71.0754 243.108 70.875 243.616 70.5169C244.125 70.1587 244.516 69.6588 244.742 69.0794C244.877 68.7215 244.946 68.3417 244.944 67.959V60.6045H247.136V69.3575Z" fill="white"/>
<path d="M250.768 63.8646C250.768 62.6179 250.768 61.5985 250.667 60.6044H252.606L252.733 62.5925H252.784C253.176 61.8885 253.755 61.3055 254.457 60.9074C255.158 60.5095 255.955 60.3113 256.763 60.3349C258.448 60.3349 260.978 61.3205 260.978 65.4484V72.6343H258.803V65.7095C258.803 63.772 258.078 62.1544 256.012 62.1544C255.175 62.1874 254.384 62.5458 253.807 63.1533C253.232 63.7608 252.915 64.5692 252.927 65.4063V72.6428H250.744L250.768 63.8646Z" fill="white"/>
<path d="M274.971 54.9856V69.526C274.971 70.5959 274.971 71.8174 275.072 72.6346H273.133L273.032 70.5453H272.982C272.59 71.2863 271.997 71.9016 271.271 72.3204C270.545 72.7393 269.714 72.9445 268.877 72.9125C265.968 72.9125 263.726 70.4527 263.726 66.7965C263.726 62.7949 266.187 60.335 269.129 60.335C269.842 60.29 270.555 60.4366 271.192 60.7595C271.829 61.0825 272.369 61.5699 272.754 62.1715H272.804V54.9856H274.971ZM272.78 65.4991C272.781 65.1907 272.75 64.8827 272.687 64.5809C272.527 63.8625 272.126 63.2203 271.552 62.7607C270.977 62.301 270.261 62.0515 269.525 62.0537C267.257 62.0537 265.917 64.0418 265.917 66.7039C265.917 69.1385 267.106 71.1518 269.475 71.1518C270.229 71.149 270.958 70.8882 271.542 70.413C272.127 69.9378 272.531 69.277 272.687 68.5403C272.754 68.2304 272.785 67.9139 272.78 67.5968V65.4991Z" fill="white"/>
<path d="M285.274 72.6347L285.096 71.1184H285.02C284.594 71.6878 284.039 72.1475 283.4 72.4596C282.761 72.7717 282.057 72.927 281.345 72.9127C280.872 72.9478 280.396 72.8841 279.948 72.726C279.5 72.5677 279.09 72.3185 278.744 71.9939C278.399 71.6692 278.124 71.2762 277.936 70.8399C277.75 70.4034 277.656 69.9332 277.661 69.4587C277.661 66.5439 280.249 64.9517 284.902 64.977V64.7326C284.902 63.7386 284.624 61.9442 282.163 61.9442C281.056 61.9507 279.975 62.2627 279.035 62.8456L278.538 61.3966C279.732 60.6842 281.101 60.3168 282.491 60.3351C286.176 60.3351 287.069 62.8625 287.069 65.2549V69.7535C287.052 70.718 287.12 71.682 287.271 72.6347H285.274ZM284.937 66.4934C282.55 66.4513 279.878 66.8725 279.878 69.206C279.856 69.4831 279.894 69.7618 279.988 70.0231C280.083 70.2845 280.234 70.5224 280.429 70.7205C280.623 70.9187 280.859 71.0726 281.12 71.1718C281.379 71.2709 281.658 71.3131 281.935 71.2952C282.572 71.3113 283.197 71.125 283.722 70.7632C284.245 70.4014 284.642 69.8827 284.852 69.2818C284.927 69.0564 284.968 68.8204 284.971 68.5825L284.937 66.4934Z" fill="white"/>
<path d="M293.13 57.1509V60.6049H296.266V62.2897H293.13V68.7764C293.13 70.2676 293.56 71.11 294.773 71.11C295.202 71.1135 295.63 71.0655 296.046 70.9668L296.149 72.6011C295.523 72.8224 294.864 72.9252 294.2 72.9044C293.765 72.9291 293.328 72.86 292.921 72.7015C292.513 72.5432 292.145 72.2991 291.841 71.9862C291.216 71.3375 290.997 70.3012 290.997 68.8523V62.2729H289.151V60.588H291.022V57.7237L293.13 57.1509Z" fill="white"/>
<path d="M301.173 57.2266C301.173 57.5864 301.03 57.9313 300.775 58.1856C300.521 58.4401 300.175 58.583 299.816 58.583C299.456 58.583 299.111 58.4401 298.856 58.1856C298.601 57.9313 298.458 57.5864 298.458 57.2266C298.454 57.0457 298.485 56.8659 298.553 56.6977C298.62 56.5296 298.72 56.3768 298.848 56.2484C298.975 56.1202 299.127 56.019 299.296 55.9511C299.463 55.8832 299.644 55.85 299.824 55.8535C300.005 55.8474 300.186 55.8789 300.353 55.9461C300.521 56.0134 300.674 56.1147 300.8 56.2438C300.927 56.3729 301.026 56.5269 301.09 56.6961C301.154 56.8654 301.182 57.046 301.173 57.2266ZM298.728 72.6347V60.6048H300.954V72.6347H298.728Z" fill="white"/>
<path d="M315.453 66.5523C315.453 71.0088 312.367 72.9463 309.45 72.9463C306.197 72.9463 303.685 70.5538 303.685 66.7544C303.685 62.7276 306.323 60.3687 309.652 60.3687C313.108 60.3351 315.453 62.8456 315.453 66.5523ZM305.893 66.6786C305.893 69.3155 307.41 71.3036 309.551 71.3036C311.692 71.3036 313.209 69.3407 313.209 66.628C313.209 64.5894 312.19 62.0031 309.603 62.0031C307.014 62.0031 305.893 64.3619 305.893 66.6449V66.6786Z" fill="white"/>
<path d="M318.21 63.8651C318.21 62.6182 318.211 61.5988 318.109 60.6048H320.056L320.175 62.593H320.225C320.619 61.8895 321.198 61.3071 321.9 60.9091C322.601 60.5111 323.398 60.3127 324.204 60.3352C325.889 60.3352 328.461 61.3209 328.461 65.4488V72.6348H326.244V65.71C326.244 63.7723 325.528 62.1549 323.462 62.1549C322.625 62.1877 321.834 62.5461 321.258 63.1536C320.681 63.7611 320.365 64.5696 320.377 65.4066V72.6432H318.185L318.21 63.8651Z" fill="white"/>
<path d="M144.517 40.9841C140.074 40.9841 138.253 37.2942 138.253 33.1748C138.253 29.0553 140.074 25.3232 144.517 25.3232C148.959 25.3232 150.772 29.0131 150.772 33.1748C150.772 37.3363 148.951 40.9841 144.517 40.9841ZM144.517 47.7236C153.705 47.7236 160.711 42.3741 160.711 33.1832C160.711 23.9922 153.705 18.6006 144.517 18.6006C135.328 18.6006 128.314 23.9416 128.314 33.1832C128.314 42.4246 135.32 47.7236 144.517 47.7236Z" fill="white"/>
<path d="M159.825 25.9641H165.339V37.2948C165.339 43.9163 167.421 47.7157 176.028 47.7157C178.058 47.6724 180.083 47.4923 182.089 47.1765L181.768 40.9257C180.8 41.1305 179.816 41.2573 178.826 41.3048C175.775 41.3048 174.974 39.6199 174.974 36.2502V25.9641H181.719V19.2246H174.974V9.604L165.515 12.9737V19.2246H159.843L159.825 25.9641Z" fill="white"/>
<path d="M215.379 47.075H224.998V33.2845H225.107L232.804 47.075H244.463L233.976 32.0039L243.662 19.2326H233.125L225.107 30.934H224.998V9.64575L215.379 12.9734V47.075Z" fill="white"/>
<path d="M102.686 47.075H112.313V33.2845H112.423L120.12 47.075H131.77L121.291 32.0039L130.969 19.2326H120.44L112.423 30.934H112.313V9.64575L102.686 12.8133V47.075Z" fill="white"/>
<path d="M192.314 38.2801C192.314 35.5759 194.911 34.5481 198.216 34.5481C199.673 34.5481 201.082 34.6576 202.33 34.7081C202.33 38.0105 200.002 41.3633 196.319 41.3633C194.051 41.3633 192.314 40.2261 192.314 38.2801ZM211.957 47.1762C211.563 44.9803 211.382 42.7515 211.417 40.5209V30.0579C211.417 21.4651 205.196 18.3818 197.996 18.3818C194.15 18.3022 190.326 18.9806 186.742 20.3784L186.903 26.983C189.668 25.5223 192.762 24.7944 195.888 24.8685C199.404 24.8685 202.27 25.8963 202.33 29.7378C200.827 29.4897 199.308 29.3629 197.786 29.3587C192.584 29.3587 183.227 30.3865 183.227 38.9792C183.227 45.0954 188.2 47.8501 193.773 47.8501C197.786 47.8501 200.517 46.2831 202.708 42.7956H202.81C202.81 44.2529 202.978 45.7187 203.029 47.2267L211.957 47.1762Z" fill="white"/>
<path d="M0 40.5042C0 18.1377 21.0751 0 47.1241 0C73.173 0 94.2481 18.1377 94.2481 40.5042C94.2481 62.8708 73.173 81 47.1241 81C21.0751 81 0 62.8708 0 40.5042Z" fill="#003974"/>
<path d="M41.4082 13.0999L52.3504 9.48584L52.401 68.6331L41.366 72.3314L41.4082 13.0999Z" fill="#EC1C24"/>
<path d="M47.8992 49.9901C43.1447 55.7186 38.5419 61.5735 29.9348 61.5735C17.7618 61.5735 11.9956 49.7795 11.9956 39.9903C11.9956 30.5467 16.5056 19.376 28.3584 19.376C33.5008 19.376 38.4745 22.5184 41.3997 25.846V33.8574C38.9297 32.1726 33.4164 30.5804 29.8083 30.4877C22.2971 30.3613 15.6626 33.6216 15.7808 41.035C15.8565 46.1401 20.923 49.611 25.9558 49.611C33.6693 49.611 38.3396 42.5682 42.2427 37.2272C43.3385 35.8287 46.4071 31.726 46.8877 31.069C51.2207 25.012 56.2366 19.4856 64.8522 19.4856C74.9683 19.4856 80.6922 27.6571 82.3108 36.0647H77.7248C76.6967 34.685 75.3564 33.5681 73.8135 32.8054C72.2707 32.0425 70.5692 31.6553 68.848 31.6756C60.8732 31.6756 56.1102 38.9963 52.1227 44.3963C52.1227 44.3963 49.0204 48.6085 47.9077 49.9732L47.8992 49.9901ZM82.5637 44.6491C81.5352 53.0733 76.7891 61.6493 66.4201 61.6662C60.3674 61.6662 55.638 57.5383 52.3588 52.4668V46.5698C56.4558 48.6001 60.2915 50.782 64.9365 50.8493C70.6604 50.9336 75.8365 48.7348 77.9778 44.6153L82.5637 44.6491Z" fill="white"/>
</svg>
